{
    "asset" : {
        "generator" : "Khronos glTF Blender I/O v1.7.33",
        "version" : "2.0"
    },
    "scene" : 0,
    "scenes" : [
        {
            "name" : "Scene",
            "nodes" : [
                0
            ]
        }
    ],
    "nodes" : [
        {
            "mesh" : 0,
            "name" : "fossil16.001",
            "rotation" : [
                0.09229595959186554,
                0.7010573744773865,
                0.09229595959186554,
                0.7010573744773865
            ],
            "translation" : [
                0,
                0.20269513130187988,
                0
            ]
        }
    ],
    "materials" : [
        {
            "doubleSided" : true,
            "name" : "fossil16.001",
            "normalTexture" : {
                "index" : 0
            },
            "pbrMetallicRoughness" : {
                "baseColorTexture" : {
                    "index" : 1
                },
                "metallicFactor" : 0.748031497001648,
                "roughnessFactor" : 0.5527864098548889
            }
        }
    ],
    "meshes" : [
        {
            "name" : "tmp.o.001",
            "primitives" : [
                {
                    "attributes" : {
                        "POSITION" : 0,
                        "NORMAL" : 1,
                        "TEXCOORD_0" : 2
                    },
                    "indices" : 3,
                    "material" : 0
                }
            ]
        }
    ],
    "textures" : [
        {
            "sampler" : 0,
            "source" : 0
        },
        {
            "sampler" : 0,
            "source" : 1
        }
    ],
    "images" : [
        {
            "mimeType" : "image/jpeg",
            "name" : "fossil16_normals",
            "uri" : "fossil16_normals.jpg"
        },
        {
            "mimeType" : "image/jpeg",
            "name" : "fossil16_albedo",
            "uri" : "fossil16_albedo.jpg"
        }
    ],
    "accessors" : [
        {
            "bufferView" : 0,
            "componentType" : 5126,
            "count" : 1617,
            "max" : [
                0.3463077247142792,
                0.16186675429344177,
                0.31925421953201294
            ],
            "min" : [
                -0.6129122376441956,
                -0.11216480284929276,
                -0.32486116886138916
            ],
            "type" : "VEC3"
        },
        {
            "bufferView" : 1,
            "componentType" : 5126,
            "count" : 1617,
            "type" : "VEC3"
        },
        {
            "bufferView" : 2,
            "componentType" : 5126,
            "count" : 1617,
            "type" : "VEC2"
        },
        {
            "bufferView" : 3,
            "componentType" : 5123,
            "count" : 4497,
            "type" : "SCALAR"
        }
    ],
    "bufferViews" : [
        {
            "buffer" : 0,
            "byteLength" : 19404,
            "byteOffset" : 0
        },
        {
            "buffer" : 0,
            "byteLength" : 19404,
            "byteOffset" : 19404
        },
        {
            "buffer" : 0,
            "byteLength" : 12936,
            "byteOffset" : 38808
        },
        {
            "buffer" : 0,
            "byteLength" : 8994,
            "byteOffset" : 51744
        }
    ],
    "samplers" : [
        {
            "magFilter" : 9729,
            "minFilter" : 9987
        }
    ],
    "buffers" : [
        {
            "byteLength" : 60740,
            "uri" : "shark_tooth.bin"
        }
    ]
}
