{
    "asset" : {
        "generator" : "Khronos glTF Blender I/O v1.7.33",
        "version" : "2.0"
    },
    "scene" : 0,
    "scenes" : [
        {
            "name" : "Scene",
            "nodes" : [
                0
            ]
        }
    ],
    "nodes" : [
        {
            "mesh" : 0,
            "name" : "combinado_fosseis",
            "rotation" : [
                0,
                0,
                0.19748026132583618,
                0.98030686378479
            ]
        }
    ],
    "materials" : [
        {
            "doubleSided" : true,
            "name" : "fossil16",
            "normalTexture" : {
                "index" : 0
            },
            "pbrMetallicRoughness" : {
                "baseColorTexture" : {
                    "index" : 1
                },
                "metallicFactor" : 0.748031497001648,
                "roughnessFactor" : 0.5527864098548889
            }
        },
        {
            "doubleSided" : true,
            "name" : "fossil19",
            "normalTexture" : {
                "index" : 2
            },
            "pbrMetallicRoughness" : {
                "baseColorTexture" : {
                    "index" : 3
                },
                "metallicFactor" : 0.6692912578582764,
                "roughnessFactor" : 0.5527864098548889
            }
        }
    ],
    "meshes" : [
        {
            "name" : "tmp.o.004",
            "primitives" : [
                {
                    "attributes" : {
                        "POSITION" : 0,
                        "NORMAL" : 1,
                        "TEXCOORD_0" : 2
                    },
                    "indices" : 3,
                    "material" : 0
                },
                {
                    "attributes" : {
                        "POSITION" : 4,
                        "NORMAL" : 5,
                        "TEXCOORD_0" : 6
                    },
                    "indices" : 7,
                    "material" : 1
                }
            ]
        }
    ],
    "textures" : [
        {
            "sampler" : 0,
            "source" : 0
        },
        {
            "sampler" : 0,
            "source" : 1
        },
        {
            "sampler" : 0,
            "source" : 2
        },
        {
            "sampler" : 0,
            "source" : 3
        }
    ],
    "images" : [
        {
            "bufferView" : 4,
            "mimeType" : "image/jpeg",
            "name" : "fossil16_normals"
        },
        {
            "bufferView" : 5,
            "mimeType" : "image/jpeg",
            "name" : "fossil16_albedo"
        },
        {
            "bufferView" : 10,
            "mimeType" : "image/jpeg",
            "name" : "fossil19_normals"
        },
        {
            "bufferView" : 11,
            "mimeType" : "image/jpeg",
            "name" : "fossil19_albedo"
        }
    ],
    "accessors" : [
        {
            "bufferView" : 0,
            "componentType" : 5126,
            "count" : 1617,
            "max" : [
                0.3463077247142792,
                0.16186675429344177,
                0.31925421953201294
            ],
            "min" : [
                -0.6129122376441956,
                -0.11216480284929276,
                -0.32486116886138916
            ],
            "type" : "VEC3"
        },
        {
            "bufferView" : 1,
            "componentType" : 5126,
            "count" : 1617,
            "type" : "VEC3"
        },
        {
            "bufferView" : 2,
            "componentType" : 5126,
            "count" : 1617,
            "type" : "VEC2"
        },
        {
            "bufferView" : 3,
            "componentType" : 5123,
            "count" : 4497,
            "type" : "SCALAR"
        },
        {
            "bufferView" : 6,
            "componentType" : 5126,
            "count" : 1395,
            "max" : [
                0.8143399953842163,
                -0.014562427997589111,
                0.3284628689289093
            ],
            "min" : [
                -0.13384896516799927,
                -0.5949394702911377,
                -0.3873059153556824
            ],
            "type" : "VEC3"
        },
        {
            "bufferView" : 7,
            "componentType" : 5126,
            "count" : 1395,
            "type" : "VEC3"
        },
        {
            "bufferView" : 8,
            "componentType" : 5126,
            "count" : 1395,
            "type" : "VEC2"
        },
        {
            "bufferView" : 9,
            "componentType" : 5123,
            "count" : 4494,
            "type" : "SCALAR"
        }
    ],
    "bufferViews" : [
        {
            "buffer" : 0,
            "byteLength" : 19404,
            "byteOffset" : 0
        },
        {
            "buffer" : 0,
            "byteLength" : 19404,
            "byteOffset" : 19404
        },
        {
            "buffer" : 0,
            "byteLength" : 12936,
            "byteOffset" : 38808
        },
        {
            "buffer" : 0,
            "byteLength" : 8994,
            "byteOffset" : 51744
        },
        {
            "buffer" : 0,
            "byteLength" : 261772,
            "byteOffset" : 60740
        },
        {
            "buffer" : 0,
            "byteLength" : 230226,
            "byteOffset" : 322512
        },
        {
            "buffer" : 0,
            "byteLength" : 16740,
            "byteOffset" : 552740
        },
        {
            "buffer" : 0,
            "byteLength" : 16740,
            "byteOffset" : 569480
        },
        {
            "buffer" : 0,
            "byteLength" : 11160,
            "byteOffset" : 586220
        },
        {
            "buffer" : 0,
            "byteLength" : 8988,
            "byteOffset" : 597380
        },
        {
            "buffer" : 0,
            "byteLength" : 341236,
            "byteOffset" : 606368
        },
        {
            "buffer" : 0,
            "byteLength" : 378043,
            "byteOffset" : 947604
        }
    ],
    "samplers" : [
        {
            "magFilter" : 9729,
            "minFilter" : 9987
        }
    ],
    "buffers" : [
        {
            "byteLength" : 1325648,
            "uri" : "data:application/octet-stream;base64,"
        }
    ]
}
